<svg xmlns="http://www.w3.org/2000/svg" viewBox="0 0 512 512"><defs><linearGradient id="ar" x1="0" y1="0" x2="1" y2="1"><stop offset="0" stop-color="#1e2a78"/><stop offset="1" stop-color="#2f6bff"/></linearGradient><linearGradient id="br" x1="0" y1="0" x2="1" y2="1"><stop offset="0" stop-color="#00a3ff"/><stop offset="1" stop-color="#19d3f5"/></linearGradient><linearGradient id="cr" x1="0" y1="0" x2="1" y2="1"><stop offset="0" stop-color="#7cf5d2"/><stop offset="1" stop-color="#2ad1c9"/></linearGradient><clipPath id="kr"><path d="M 0 46 C -6 34, -24 22, -24 0 A 24 24 0 1 1 24 0 C 24 22, 6 34, 0 46 Z"/></clipPath></defs><rect width="512" height="512" rx="112" fill="#0e1330"/><g transform="translate(256 256) scale(1.0) translate(-256 -256)"><g transform="translate(136 180) rotate(-12) scale(2.5)" opacity="0.95"><path d="M 0 46 C -6 34, -24 22, -24 0 A 24 24 0 1 1 24 0 C 24 22, 6 34, 0 46 Z" fill="#ffffff"/><circle cx="0" cy="-1" r="9" fill="#0e1330"/></g><g transform="translate(376 180) rotate(12) scale(2.5)" opacity="0.95"><path d="M 0 46 C -6 34, -24 22, -24 0 A 24 24 0 1 1 24 0 C 24 22, 6 34, 0 46 Z" fill="#ffffff"/><circle cx="0" cy="-1" r="9" fill="#0e1330"/></g><g transform="translate(256 236) scale(3.95)">
<path d="M 0 46 C -6 34, -24 22, -24 0 A 24 24 0 1 1 24 0 C 24 22, 6 34, 0 46 Z" fill="none" stroke="#ffffff" stroke-width="5" stroke-linejoin="round"/>
<g clip-path="url(#kr)"><rect x="-40" y="-40" width="80" height="100" fill="url(#ar)"/><path d="M -40 -40 L -1 -40 C -15 -16, -11 14, 16 30 L 0 60 L -40 60 Z" fill="url(#br)"/><path d="M -40 -40 L -17 -40 C -24 -12, -18 20, 7 42 L 0 60 L -40 60 Z" fill="url(#cr)"/></g>
<circle cx="0" cy="-1" r="9.5" fill="#ffffff"/></g></g></svg>